STARTFONT 2.3
FONT -FontForge-Satisfy-Book-R-Normal--12-120-72-72-P-52-ISO10646-1
SIZE 12 72 72  4
FONTBOUNDINGBOX 15 18 -3 -6
COMMENT "Generated by fontforge, http://fontforge.sourceforge.net"
COMMENT "Copyright (c) 2011 by Font Diner, Inc. All rights reserved."
STARTPROPERTIES 40
FOUNDRY "FontForge"
FAMILY_NAME "Satisfy"
WEIGHT_NAME "Book"
SLANT "R"
SETWIDTH_NAME "Normal"
ADD_STYLE_NAME ""
PIXEL_SIZE 12
POINT_SIZE 120
RESOLUTION_X 72
RESOLUTION_Y 72
SPACING "P"
AVERAGE_WIDTH 52
CHARSET_REGISTRY "ISO10646"
CHARSET_ENCODING "1"
FONTNAME_REGISTRY ""
CHARSET_COLLECTIONS "ISO10646-1"
BITS_PER_PIXEL 4
FONT_NAME "Satisfy-Regular"
FACE_NAME "Satisfy Regular"
COPYRIGHT "Copyright (c) 2011 by Font Diner, Inc. All rights reserved."
FONT_VERSION "1.001"
FONT_ASCENT 10
FONT_DESCENT 2
UNDERLINE_POSITION -1
UNDERLINE_THICKNESS 1
X_HEIGHT 4
CAP_HEIGHT 8
RAW_ASCENT 799
RAW_DESCENT 200
NORM_SPACE 3
RELATIVE_WEIGHT 40
RELATIVE_SETWIDTH 50
SUPERSCRIPT_X 0
SUPERSCRIPT_Y 5
SUPERSCRIPT_SIZE 7
SUBSCRIPT_X 0
SUBSCRIPT_Y 1
SUBSCRIPT_SIZE 7
AVG_LOWERCASE_WIDTH 49
AVG_UPPERCASE_WIDTH 68
ENDPROPERTIES
CHARS 227
STARTCHAR space
ENCODING 32
SWIDTH 280 0
DWIDTH 3 0
BBX 1 1 0 0
BITMAP
00
ENDCHAR
STARTCHAR exclam
ENCODING 33
SWIDTH 249 0
DWIDTH 3 0
BBX 5 10 -1 -1
BITMAP
001B10
004D00
008900
00B500
00E100
03C000
068000
031000
1C3000
030000
ENDCHAR
STARTCHAR quotedbl
ENCODING 34
SWIDTH 249 0
DWIDTH 3 0
BBX 4 4 0 5
BITMAP
0839
1D68
4994
5490
ENDCHAR
STARTCHAR numbersign
ENCODING 35
SWIDTH 417 0
DWIDTH 5 0
BBX 7 7 -1 1
BITMAP
00050500
001B4800
07DDDB30
00A1B000
2CECD800
05784000
05271000
ENDCHAR
STARTCHAR dollar
ENCODING 36
SWIDTH 292 0
DWIDTH 4 0
BBX 5 10 -1 -1
BITMAP
000510
006A70
0390C0
049170
00D100
007700
462B00
3A8600
074000
010000
ENDCHAR
STARTCHAR percent
ENCODING 37
SWIDTH 574 0
DWIDTH 7 0
BBX 7 10 0 -1
BITMAP
05910280
3A480B20
74578500
77B59000
163B1000
0095AB10
04975650
1C1A1930
9608A900
20002000
ENDCHAR
STARTCHAR ampersand
ENCODING 38
SWIDTH 460 0
DWIDTH 6 0
BBX 6 10 -1 -1
BITMAP
000289
000B2A
001EB3
002F50
01CE00
0B8F10
5C0E31
970B97
5E8CE1
023282
ENDCHAR
STARTCHAR quotesingle
ENCODING 39
SWIDTH 113 0
DWIDTH 1 0
BBX 3 4 0 5
BITMAP
0820
1D00
4900
5400
ENDCHAR
STARTCHAR parenleft
ENCODING 40
SWIDTH 234 0
DWIDTH 3 0
BBX 4 12 0 -2
BITMAP
0017
00A3
0490
0B20
1C00
5900
9600
B300
B200
A200
6400
0100
ENDCHAR
STARTCHAR parenright
ENCODING 41
SWIDTH 204 0
DWIDTH 2 0
BBX 5 12 -2 -2
BITMAP
000700
000920
000840
000940
000B30
000D10
002B00
007600
00B100
058000
1A1000
100000
ENDCHAR
STARTCHAR asterisk
ENCODING 42
SWIDTH 327 0
DWIDTH 4 0
BBX 5 5 0 4
BITMAP
006400
3BA540
06E840
1D5C00
010200
ENDCHAR
STARTCHAR plus
ENCODING 43
SWIDTH 350 0
DWIDTH 4 0
BBX 5 5 0 2
BITMAP
004000
02C000
ADEB10
295000
071000
ENDCHAR
STARTCHAR comma
ENCODING 44
SWIDTH 200 0
DWIDTH 2 0
BBX 2 3 -1 -2
BITMAP
3C
1B
12
ENDCHAR
STARTCHAR hyphen
ENCODING 45
SWIDTH 353 0
DWIDTH 4 0
BBX 5 2 -1 3
BITMAP
013320
1BA990
ENDCHAR
STARTCHAR period
ENCODING 46
SWIDTH 213 0
DWIDTH 3 0
BBX 3 2 -1 -1
BITMAP
3C20
1300
ENDCHAR
STARTCHAR slash
ENCODING 47
SWIDTH 262 0
DWIDTH 3 0
BBX 6 10 -1 -1
BITMAP
000055
0001C0
000940
002A00
00A200
049000
0C2000
590000
D20000
200000
ENDCHAR
STARTCHAR zero
ENCODING 48
SWIDTH 489 0
DWIDTH 6 0
BBX 6 10 0 -1
BITMAP
003B70
02D1B2
0A5085
2E0085
6A00B4
9800E1
9704B0
780C40
2DA700
022000
ENDCHAR
STARTCHAR one
ENCODING 49
SWIDTH 272 0
DWIDTH 3 0
BBX 3 10 0 -1
BITMAP
0190
08D0
05A0
0860
0B20
0D00
3A00
8700
B600
2100
ENDCHAR
STARTCHAR two
ENCODING 50
SWIDTH 448 0
DWIDTH 5 0
BBX 7 10 -1 -1
BITMAP
00078900
00A60E20
00E11F10
00006A00
0001C200
001B4000
02C40000
1C321000
3EDEF100
02001000
ENDCHAR
STARTCHAR three
ENCODING 51
SWIDTH 462 0
DWIDTH 6 0
BBX 6 10 0 -1
BITMAP
029A80
0C50B4
1F20D2
010890
01AB00
015A60
000680
B20B40
CBA800
043000
ENDCHAR
STARTCHAR four
ENCODING 52
SWIDTH 452 0
DWIDTH 5 0
BBX 6 10 0 -1
BITMAP
0004A1
003CD0
01C490
1C4660
B83B50
AA8F90
003D00
006B00
009A00
001100
ENDCHAR
STARTCHAR five
ENCODING 53
SWIDTH 444 0
DWIDTH 5 0
BBX 6 10 0 -1
BITMAP
018AA4
058595
0A1000
0B3500
4EAB70
150570
110740
D32A00
CFD200
141000
ENDCHAR
STARTCHAR six
ENCODING 54
SWIDTH 477 0
DWIDTH 6 0
BBX 6 10 0 -1
BITMAP
0019A0
00B3C2
078060
1E5930
4EB2C0
8C31E0
8704B0
680A50
1D8900
023000
ENDCHAR
STARTCHAR seven
ENCODING 55
SWIDTH 406 0
DWIDTH 5 0
BBX 6 10 0 -1
BITMAP
07ABB3
0A42B3
000590
001D10
00A600
03D000
0A7000
1F1000
5D0000
010000
ENDCHAR
STARTCHAR eight
ENCODING 56
SWIDTH 444 0
DWIDTH 5 0
BBX 7 10 -1 -1
BITMAP
00058800
00390730
00881C10
006DC400
004F7000
04B5D000
0C20E200
1C00E100
0C5A6000
01420000
ENDCHAR
STARTCHAR nine
ENCODING 57
SWIDTH 462 0
DWIDTH 6 0
BBX 6 10 0 -1
BITMAP
006960
0690B0
0D10A2
3B02E2
4A08E0
1D79B0
033860
714C00
ADD200
030000
ENDCHAR
STARTCHAR colon
ENCODING 58
SWIDTH 226 0
DWIDTH 3 0
BBX 3 5 -1 -1
BITMAP
0130
0770
0000
3C20
1300
ENDCHAR
STARTCHAR semicolon
ENCODING 59
SWIDTH 212 0
DWIDTH 3 0
BBX 3 6 -1 -2
BITMAP
0230
0950
0000
3C00
1B00
1200
ENDCHAR
STARTCHAR less
ENCODING 60
SWIDTH 271 0
DWIDTH 3 0
BBX 4 6 0 1
BITMAP
0012
05C1
7B10
D300
5B00
0820
ENDCHAR
STARTCHAR equal
ENCODING 61
SWIDTH 374 0
DWIDTH 4 0
BBX 5 4 0 2
BITMAP
144410
598820
ACCA00
200000
ENDCHAR
STARTCHAR greater
ENCODING 62
SWIDTH 250 0
DWIDTH 3 0
BBX 4 6 -1 1
BITMAP
0120
02D1
0088
008B
0990
5600
ENDCHAR
STARTCHAR question
ENCODING 63
SWIDTH 413 0
DWIDTH 5 0
BBX 7 10 -1 -1
BITMAP
004ABA10
03E20870
01800960
00003C10
0038B200
01E40000
05B00000
04300000
1B500000
05100000
ENDCHAR
STARTCHAR at
ENCODING 64
SWIDTH 648 0
DWIDTH 8 0
BBX 9 9 -1 -1
BITMAP
0003877100
0089122A00
0782ACB650
1C1B19A380
4967084580
48854C0A30
0C39885900
03A62B7000
0002000000
ENDCHAR
STARTCHAR A
ENCODING 65
SWIDTH 552 0
DWIDTH 7 0
BBX 8 12 -2 -3
BITMAP
000002A9
00002B1C
0000B41C
0003C04A
00096077
000E10A5
017EBBE7
06D924F3
01F403D0
06E005C0
0D8005D0
110002A1
ENDCHAR
STARTCHAR B
ENCODING 66
SWIDTH 607 0
DWIDTH 7 0
BBX 7 12 0 -3
BITMAP
018D9920
0CE607C0
01D205E0
03C00A90
07805C10
0BCDE200
1E423C00
4C000E30
98003F20
D501C900
E88C7000
13200000
ENDCHAR
STARTCHAR C
ENCODING 67
SWIDTH 548 0
DWIDTH 7 0
BBX 7 12 0 -3
BITMAP
0007AA10
00A80880
07C00990
1E402E60
6D000400
A9000000
D6000000
F5000000
E5001200
A9019100
2DBC3000
00200000
ENDCHAR
STARTCHAR D
ENCODING 68
SWIDTH 632 0
DWIDTH 8 0
BBX 8 12 0 -3
BITMAP
029CA300
09624D40
01D205C0
03F002F1
06C001F2
088003F1
0C4007C0
1E100D50
5B006B00
A705D200
CBBA1000
02100000
ENDCHAR
STARTCHAR E
ENCODING 69
SWIDTH 523 0
DWIDTH 6 0
BBX 8 12 -1 -3
BITMAP
00019991
003D3086
00D700C4
01F305A0
00D60000
004EA200
05B33000
1E200000
4E000250
3F301A00
08EBB200
00120000
ENDCHAR
STARTCHAR F
ENCODING 70
SWIDTH 585 0
DWIDTH 7 0
BBX 7 12 0 -3
BITMAP
027AAB50
3D4002D0
6F800590
04200C20
00126A00
0ACAFB40
0005C000
000C6000
003F1000
007C0000
00AB0000
00100000
ENDCHAR
STARTCHAR G
ENCODING 71
SWIDTH 612 0
DWIDTH 7 0
BBX 7 12 0 -3
BITMAP
0003AA20
005C1590
02E207A0
0A902E60
2F300600
7E000000
AA0ACEA0
C8001D00
B7005900
8901C100
1C7B3000
01410000
ENDCHAR
STARTCHAR H
ENCODING 72
SWIDTH 649 0
DWIDTH 8 0
BBX 8 12 0 -3
BITMAP
00550037
00D400A8
02E000E3
05B003D0
09700690
1DBABED3
3E3A2E50
4B02BC00
8900B800
C600B600
F400D300
20000000
ENDCHAR
STARTCHAR I
ENCODING 73
SWIDTH 537 0
DWIDTH 6 0
BBX 8 12 -1 -3
BITMAP
00001980
0001D4D0
0007B3C0
000976A0
00086A70
00047E30
00258F82
2CA69910
B700C300
B803A000
2C8A1000
00200000
ENDCHAR
STARTCHAR J
ENCODING 74
SWIDTH 500 0
DWIDTH 6 0
BBX 8 12 -1 -3
BITMAP
0003ABB9
000238A2
00000B60
00000E20
00003E00
00307B00
0BE0B700
6C11F300
C305C000
E00C5000
96880000
04300000
ENDCHAR
STARTCHAR K
ENCODING 75
SWIDTH 497 0
DWIDTH 6 0
BBX 8 13 -1 -4
BITMAP
000A2074
003D00D5
008803E1
00C40C60
01E09800
05C96000
0AC9C400
0C409800
0F10B600
4E02E100
7D05C000
1001D640
00001410
ENDCHAR
STARTCHAR L
ENCODING 76
SWIDTH 492 0
DWIDTH 6 0
BBX 9 12 -2 -3
BITMAP
0000007B30
000005CA50
00000C6C10
00001FD500
006BDD3000
0000790000
0000B50000
0001E10000
0006800000
1BDF400100
1C96DBC500
0000044000
ENDCHAR
STARTCHAR M
ENCODING 77
SWIDTH 733 0
DWIDTH 9 0
BBX 11 12 -2 -3
BITMAP
000008400770
00004F603E90
0000AB60AA60
0000E862BB20
0004B9494D00
00088B4C3B00
044C4C967800
0B1E1CE1A500
2A4C0AB0E300
2A980341F200
0DE20001E800
012000001100
ENDCHAR
STARTCHAR N
ENCODING 78
SWIDTH 541 0
DWIDTH 7 0
BBX 9 12 -1 -3
BITMAP
0037003C50
008D00C680
00CE02D740
01CC19E800
049A187000
086A1A4000
0B392C2000
0E094E0000
4D079B0000
6D04F70000
6E01E30000
0100000000
ENDCHAR
STARTCHAR O
ENCODING 79
SWIDTH 567 0
DWIDTH 7 0
BBX 7 12 0 -3
BITMAP
002CC500
01D72E00
08800E20
1E200D20
5B000D20
98001F10
C5003D00
D4007900
D400D300
A606A000
3C8B1000
02300000
ENDCHAR
STARTCHAR P
ENCODING 80
SWIDTH 552 0
DWIDTH 7 0
BBX 8 11 -1 -2
BITMAP
00179AA1
03DE1099
013C006C
0049008A
008501E3
00C22C60
01F9A400
05C00000
09800000
0D500000
5E100000
ENDCHAR
STARTCHAR Q
ENCODING 81
SWIDTH 583 0
DWIDTH 7 0
BBX 7 12 0 -3
BITMAP
0019A700
01D50C30
0A800770
2F100780
7B000970
A8000C40
98002E00
4C208900
0453E200
4D9F7000
6CC6A720
02100210
ENDCHAR
STARTCHAR R
ENCODING 82
SWIDTH 560 0
DWIDTH 7 0
BBX 8 12 -1 -3
BITMAP
00179AA1
02DD208A
013D004D
003A007B
007700D4
01C82B80
05FDE400
03E0B300
07B08600
0B707800
2E206C00
00001C80
ENDCHAR
STARTCHAR S
ENCODING 83
SWIDTH 474 0
DWIDTH 6 0
BBX 7 12 -1 -3
BITMAP
0007BA50
009902D0
01F104D0
01F20650
00AB0000
001D9000
0003F200
0000B400
4B00B200
7C01C000
2E9B3000
01410000
ENDCHAR
STARTCHAR T
ENCODING 84
SWIDTH 423 0
DWIDTH 5 0
BBX 7 12 0 -3
BITMAP
38AAA940
676F3310
005B0000
00970000
00C30000
01E00000
05B00000
08800000
0C500000
0F200000
3F000000
11000000
ENDCHAR
STARTCHAR U
ENCODING 85
SWIDTH 574 0
DWIDTH 7 0
BBX 8 12 0 -3
BITMAP
00730193
04F104E0
09A008A0
0D500C50
2F101F10
5C004C00
88008800
B500C500
D303F300
D40BE200
8DB6A400
02100000
ENDCHAR
STARTCHAR V
ENCODING 86
SWIDTH 503 0
DWIDTH 6 0
BBX 7 12 0 -3
BITMAP
05600460
0C500C70
1F103E00
3C009800
6A00D300
7803D000
78088000
680D3000
492C0000
1B850000
0BC00000
01100000
ENDCHAR
STARTCHAR W
ENCODING 87
SWIDTH 817 0
DWIDTH 10 0
BBX 10 12 0 -3
BITMAP
0093010087
05C01E10A9
0A606E0097
0E108A00A5
4C009600C3
7800B401E0
9502F205A0
A307F10A50
A30CB11D00
8667938600
3EB05DA000
0200030000
ENDCHAR
STARTCHAR X
ENCODING 88
SWIDTH 579 0
DWIDTH 7 0
BBX 9 12 -1 -3
BITMAP
01AB0004A0
074A403E40
088881D500
02CAA98000
0001ED0000
0001F30000
0008F00000
003DC10000
00D4A40000
08A0780300
4D201D9600
0000011000
ENDCHAR
STARTCHAR Y
ENCODING 89
SWIDTH 532 0
DWIDTH 6 0
BBX 7 12 0 -3
BITMAP
03A00590
09A00A80
0D500D30
2E102E00
5B007A00
8800D700
9708D300
4EB6C000
0103A000
531C3000
CFE60000
02000000
ENDCHAR
STARTCHAR Z
ENCODING 90
SWIDTH 455 0
DWIDTH 5 0
BBX 7 12 -1 -3
BITMAP
007ABA80
009646D0
00000A80
00005D10
0002E300
001D5000
00B80000
07B00000
2D100000
A6454100
DDCDE300
10000000
ENDCHAR
STARTCHAR bracketleft
ENCODING 91
SWIDTH 202 0
DWIDTH 2 0
BBX 5 12 -1 -2
BITMAP
001D70
005800
009300
00C000
03A000
066000
0A2000
0C0000
1A0000
580000
7A1000
250000
ENDCHAR
STARTCHAR backslash
ENCODING 92
SWIDTH 273 0
DWIDTH 3 0
BBX 3 10 0 -1
BITMAP
5500
6800
4900
1B00
0C00
0C10
0A40
0770
05A0
0010
ENDCHAR
STARTCHAR bracketright
ENCODING 93
SWIDTH 216 0
DWIDTH 3 0
BBX 5 12 -2 -2
BITMAP
0008D0
0001C0
000390
000660
000A20
000C00
002A00
006700
00A200
00C000
1A9000
151000
ENDCHAR
STARTCHAR asciicircum
ENCODING 94
SWIDTH 287 0
DWIDTH 3 0
BBX 5 5 -1 4
BITMAP
000930
008B60
02C580
0A33A0
170170
ENDCHAR
STARTCHAR underscore
ENCODING 95
SWIDTH 439 0
DWIDTH 5 0
BBX 7 2 -2 -1
BITMAP
3CDDDD80
01100110
ENDCHAR
STARTCHAR grave
ENCODING 96
SWIDTH 567 0
DWIDTH 7 0
BBX 3 3 3 6
BITMAP
1000
9A00
0310
ENDCHAR
STARTCHAR a
ENCODING 97
SWIDTH 435 0
DWIDTH 5 0
BBX 8 6 -1 -1
BITMAP
005C5000
04A4A000
0C249051
2E0A6350
1EB7B700
01002000
ENDCHAR
STARTCHAR b
ENCODING 98
SWIDTH 415 0
DWIDTH 5 0
BBX 7 10 0 -1
BITMAP
00600000
06D00000
0C900000
2F500000
7E130000
A86D8710
C12C0000
B0850000
8A900000
02000000
ENDCHAR
STARTCHAR c
ENCODING 99
SWIDTH 363 0
DWIDTH 4 0
BBX 7 6 -1 -1
BITMAP
009B3000
087B4000
0E010520
1D004600
0B886000
01410000
ENDCHAR
STARTCHAR d
ENCODING 100
SWIDTH 483 0
DWIDTH 6 0
BBX 8 10 -1 -1
BITMAP
00000230
00000990
00000E80
00002F40
00698D00
0672F700
0C00B016
1B079081
0DA6C920
01003000
ENDCHAR
STARTCHAR e
ENCODING 101
SWIDTH 372 0
DWIDTH 4 0
BBX 6 6 0 -1
BITMAP
06B400
579300
D96033
F30370
B99600
031000
ENDCHAR
STARTCHAR f
ENCODING 102
SWIDTH 325 0
DWIDTH 4 0
BBX 7 15 -2 -6
BITMAP
00015000
0005E000
0005B000
00087000
000B2000
001C4760
009B4100
00E40000
00CC2000
0393A000
0760D000
0B22B000
0D0A5000
2EBA0000
08600000
ENDCHAR
STARTCHAR g
ENCODING 103
SWIDTH 459 0
DWIDTH 6 0
BBX 8 11 -1 -6
BITMAP
008A3400
0673E400
0C10D133
0E03C370
0BBAD700
003C6000
03AC2000
0C1D0000
2B4A0000
1CA60000
06B00000
ENDCHAR
STARTCHAR h
ENCODING 104
SWIDTH 465 0
DWIDTH 6 0
BBX 8 10 -1 -1
BITMAP
00120000
007A0000
00970000
00D20000
01D5A100
05D6D300
0960D023
0C249280
1D05D800
02002000
ENDCHAR
STARTCHAR i
ENCODING 105
SWIDTH 274 0
DWIDTH 3 0
BBX 5 9 0 -1
BITMAP
036000
044000
000000
180000
6A0000
950610
B15600
9B6000
010000
ENDCHAR
STARTCHAR j
ENCODING 106
SWIDTH 267 0
DWIDTH 3 0
BBX 8 14 -3 -6
BITMAP
00002900
00003400
00000000
00008000
0004C000
00087061
000C3740
000E9300
006C1000
06D80000
2BA40000
75D00000
5A900000
03100000
ENDCHAR
STARTCHAR k
ENCODING 107
SWIDTH 440 0
DWIDTH 5 0
BBX 7 10 -1 -1
BITMAP
00230000
00990000
00A50000
00D10000
02A5A000
05C5D100
098B4050
0B294360
2A0AA800
11023000
ENDCHAR
STARTCHAR l
ENCODING 108
SWIDTH 218 0
DWIDTH 3 0
BBX 4 10 -1 -1
BITMAP
0012
008A
00A6
00E2
02D0
0690
0960
0D20
1D00
0200
ENDCHAR
STARTCHAR m
ENCODING 109
SWIDTH 717 0
DWIDTH 9 0
BBX 10 6 0 -1
BITMAP
1428257000
4D9CB9F000
8C0B72D025
B50D06A180
E14A07C910
2011014000
ENDCHAR
STARTCHAR n
ENCODING 110
SWIDTH 461 0
DWIDTH 6 0
BBX 8 6 -1 -1
BITMAP
01658000
05E6E200
0970E024
0C24B180
1D06C910
11004000
ENDCHAR
STARTCHAR o
ENCODING 111
SWIDTH 393 0
DWIDTH 5 0
BBX 7 6 -1 -1
BITMAP
01991000
08847160
0DB7C810
1B3C5000
0B8A0000
01300000
ENDCHAR
STARTCHAR p
ENCODING 112
SWIDTH 451 0
DWIDTH 5 0
BBX 9 10 -2 -5
BITMAP
0027490000
004E6B3000
00880B2420
00B54B3700
00EFFB8000
04A4220000
0760000000
0B30000000
0E10000000
2D00000000
ENDCHAR
STARTCHAR q
ENCODING 113
SWIDTH 462 0
DWIDTH 6 0
BBX 7 11 -1 -6
BITMAP
00584500
0592E600
0D20C200
1F02D050
0D6A9540
0157A600
000B7000
002D0000
007C0000
007C0000
00040000
ENDCHAR
STARTCHAR r
ENCODING 114
SWIDTH 406 0
DWIDTH 5 0
BBX 7 7 -1 -1
BITMAP
00610000
03F40000
04CC7000
0A196060
372C0820
805B9300
10052000
ENDCHAR
STARTCHAR s
ENCODING 115
SWIDTH 351 0
DWIDTH 4 0
BBX 4 7 0 -1
BITMAP
0130
0C90
1D70
72D0
32B4
9A91
1510
ENDCHAR
STARTCHAR t
ENCODING 116
SWIDTH 301 0
DWIDTH 4 0
BBX 6 10 -1 -1
BITMAP
000300
004D00
67CEA7
13E702
01F200
04B000
075025
091180
07AA10
003000
ENDCHAR
STARTCHAR u
ENCODING 117
SWIDTH 468 0
DWIDTH 6 0
BBX 7 6 0 -1
BITMAP
15042000
870E3000
C23E0150
E0591800
CA9C9100
02010000
ENDCHAR
STARTCHAR v
ENCODING 118
SWIDTH 427 0
DWIDTH 5 0
BBX 7 6 0 -1
BITMAP
43064000
C41F3120
D13E8500
C2A10000
8D400000
12000000
ENDCHAR
STARTCHAR w
ENCODING 119
SWIDTH 646 0
DWIDTH 8 0
BBX 9 6 0 -1
BITMAP
2609226000
972E098020
C3390AB730
D0651C0000
B86AA40000
1201100000
ENDCHAR
STARTCHAR x
ENCODING 120
SWIDTH 399 0
DWIDTH 5 0
BBX 7 6 -1 -1
BITMAP
06609300
03CA8000
00D90000
06E50610
4A2DA300
20021000
ENDCHAR
STARTCHAR y
ENCODING 121
SWIDTH 406 0
DWIDTH 5 0
BBX 6 10 -1 -5
BITMAP
054072
0970C3
0E22D0
2D0B90
1EAC60
023B20
000D00
004B00
008800
00A400
ENDCHAR
STARTCHAR z
ENCODING 122
SWIDTH 448 0
DWIDTH 5 0
BBX 8 11 -1 -6
BITMAP
005AB600
00528400
0002B011
002D8180
0067A910
003AD100
04A3B000
1C095000
583C0000
4DD30000
02100000
ENDCHAR
STARTCHAR braceleft
ENCODING 123
SWIDTH 243 0
DWIDTH 3 0
BBX 5 12 -1 -2
BITMAP
0008B0
005B20
007500
006600
00A300
088000
029000
057000
0B1000
3B0000
1E7000
022000
ENDCHAR
STARTCHAR bar
ENCODING 124
SWIDTH 253 0
DWIDTH 3 0
BBX 3 10 0 -1
BITMAP
00A0
03A0
0760
0A20
0C00
3A00
6700
A400
D200
2000
ENDCHAR
STARTCHAR braceright
ENCODING 125
SWIDTH 243 0
DWIDTH 3 0
BBX 5 12 -2 -2
BITMAP
000960
0005E0
0000C0
000760
000B00
000A30
002B20
008400
008400
00A300
0BC000
150000
ENDCHAR
STARTCHAR asciitilde
ENCODING 126
SWIDTH 329 0
DWIDTH 4 0
BBX 6 2 -1 3
BITMAP
2BC8A1
130430
ENDCHAR
STARTCHAR uni00A0
ENCODING 160
SWIDTH 280 0
DWIDTH 3 0
BBX 1 1 0 0
BITMAP
00
ENDCHAR
STARTCHAR exclamdown
ENCODING 161
SWIDTH 249 0
DWIDTH 3 0
BBX 5 10 -1 -1
BITMAP
002B20
001400
005700
00B400
00E100
04C000
089000
0C6000
1F2000
130000
ENDCHAR
STARTCHAR cent
ENCODING 162
SWIDTH 322 0
DWIDTH 4 0
BBX 4 9 0 0
BITMAP
0023
0197
1B3B
766C
C001
C000
C031
7B50
3800
ENDCHAR
STARTCHAR sterling
ENCODING 163
SWIDTH 318 0
DWIDTH 4 0
BBX 6 9 -1 0
BITMAP
000110
0049A2
00B2B2
01A240
08A300
0A8300
0B0000
6B9900
242200
ENDCHAR
STARTCHAR currency
ENCODING 164
SWIDTH 347 0
DWIDTH 4 0
BBX 5 5 0 2
BITMAP
210110
2CAA10
184500
6BC300
602600
ENDCHAR
STARTCHAR yen
ENCODING 165
SWIDTH 326 0
DWIDTH 4 0
BBX 5 8 0 0
BITMAP
280370
1A0A20
0B6600
089000
5DA100
7E7000
2A0000
110000
ENDCHAR
STARTCHAR brokenbar
ENCODING 166
SWIDTH 253 0
DWIDTH 3 0
BBX 3 10 0 -1
BITMAP
00A0
03A0
0760
0A20
0100
2800
6700
A400
D200
2000
ENDCHAR
STARTCHAR section
ENCODING 167
SWIDTH 297 0
DWIDTH 4 0
BBX 6 10 -1 -1
BITMAP
004680
01C0B2
00B120
018B00
0B2740
0B3A10
02B300
272B00
486700
023000
ENDCHAR
STARTCHAR dieresis
ENCODING 168
SWIDTH 567 0
DWIDTH 7 0
BBX 4 1 2 7
BITMAP
4967
ENDCHAR
STARTCHAR copyright
ENCODING 169
SWIDTH 456 0
DWIDTH 5 0
BBX 6 7 0 2
BITMAP
018760
0A3857
75A549
A4700B
A3A657
395680
014300
ENDCHAR
STARTCHAR ordfeminine
ENCODING 170
SWIDTH 373 0
DWIDTH 4 0
BBX 6 7 -1 -1
BITMAP
005A00
057840
0C0920
2C4C17
0A6670
4AAA40
332200
ENDCHAR
STARTCHAR guillemotleft
ENCODING 171
SWIDTH 346 0
DWIDTH 4 0
BBX 5 6 -1 -1
BITMAP
005160
057940
4B7700
1C5800
064A10
001100
ENDCHAR
STARTCHAR logicalnot
ENCODING 172
SWIDTH 512 0
DWIDTH 6 0
BBX 6 3 0 2
BITMAP
9BCCB9
31001B
000066
ENDCHAR
STARTCHAR sfthyphen
ENCODING 173
SWIDTH 353 0
DWIDTH 4 0
BBX 5 2 -1 3
BITMAP
013320
1BA990
ENDCHAR
STARTCHAR registered
ENCODING 174
SWIDTH 456 0
DWIDTH 5 0
BBX 6 7 0 2
BITMAP
018760
0A8757
749549
A1C90B
A37957
393780
014300
ENDCHAR
STARTCHAR macron
ENCODING 175
SWIDTH 567 0
DWIDTH 7 0
BBX 4 1 2 7
BITMAP
3CC5
ENDCHAR
STARTCHAR degree
ENCODING 176
SWIDTH 144 0
DWIDTH 2 0
BBX 3 2 0 6
BITMAP
2A40
1500
ENDCHAR
STARTCHAR twosuperior
ENCODING 178
SWIDTH 268 0
DWIDTH 3 0
BBX 4 6 0 3
BITMAP
0696
0B49
00A3
0860
8930
7890
ENDCHAR
STARTCHAR threesuperior
ENCODING 179
SWIDTH 262 0
DWIDTH 3 0
BBX 4 6 0 3
BITMAP
0895
1B48
03B1
04B2
72B1
5A40
ENDCHAR
STARTCHAR acute
ENCODING 180
SWIDTH 567 0
DWIDTH 7 0
BBX 3 3 3 6
BITMAP
0100
4C10
5100
ENDCHAR
STARTCHAR mu
ENCODING 181
SWIDTH 453 0
DWIDTH 5 0
BBX 8 8 -2 -3
BITMAP
00120300
00C26900
02C0A601
06A0C143
09DA9B60
0D100100
3B000000
21000000
ENDCHAR
STARTCHAR paragraph
ENCODING 182
SWIDTH 411 0
DWIDTH 5 0
BBX 6 10 0 -1
BITMAP
004977
2DFDC5
8FF9B0
8FF6A0
19E570
00B640
01A910
056A00
0A5800
021000
ENDCHAR
STARTCHAR periodcentered
ENCODING 183
SWIDTH 168 0
DWIDTH 2 0
BBX 2 2 0 3
BITMAP
56
63
ENDCHAR
STARTCHAR cedilla
ENCODING 184
SWIDTH 567 0
DWIDTH 7 0
BBX 3 4 3 -2
BITMAP
0100
9500
3D20
5400
ENDCHAR
STARTCHAR onesuperior
ENCODING 185
SWIDTH 150 0
DWIDTH 2 0
BBX 3 6 0 3
BITMAP
0930
0C10
0B00
2800
6500
6300
ENDCHAR
STARTCHAR ordmasculine
ENCODING 186
SWIDTH 319 0
DWIDTH 4 0
BBX 6 7 -1 -1
BITMAP
018500
095A23
0DAC80
1A2B00
089200
5AA700
322100
ENDCHAR
STARTCHAR guillemotright
ENCODING 187
SWIDTH 346 0
DWIDTH 4 0
BBX 5 6 -1 -1
BITMAP
062400
093B10
03B770
095B20
669300
101000
ENDCHAR
STARTCHAR onequarter
ENCODING 188
SWIDTH 579 0
DWIDTH 7 0
BBX 8 10 -1 -1
BITMAP
00830064
00B103A0
00B00B10
02908422
066492E5
054B2BA1
0094ABE2
05A012B0
1D100590
11000110
ENDCHAR
STARTCHAR onehalf
ENCODING 189
SWIDTH 603 0
DWIDTH 7 0
BBX 8 10 -1 -1
BITMAP
00840055
00A202B0
00B00B20
01A07544
0563985D
054B143B
008500A2
04B01A30
1D207DC3
11001111
ENDCHAR
STARTCHAR threequarters
ENCODING 190
SWIDTH 669 0
DWIDTH 8 0
BBX 8 10 0 -1
BITMAP
08950055
1B4802B0
03B10B20
04B27523
72B4A2D6
5A5B2B92
00859BD3
03B011C1
1C2004A0
11000010
ENDCHAR
STARTCHAR questiondown
ENCODING 191
SWIDTH 413 0
DWIDTH 5 0
BBX 6 10 -1 -1
BITMAP
00005C
000024
000096
0000E2
005B90
098100
4C0020
8700D3
5C6AA0
025300
ENDCHAR
STARTCHAR Agrave
ENCODING 192
SWIDTH 552 0
DWIDTH 7 0
BBX 8 15 -2 -3
BITMAP
00000010
000000A9
00000003
000002A9
00002B1C
0000B41C
0003C04A
00096077
000E10A5
017EBBE7
06D924F3
01F403D0
06E005C0
0D8005D0
110002A1
ENDCHAR
STARTCHAR Aacute
ENCODING 193
SWIDTH 552 0
DWIDTH 7 0
BBX 9 15 -2 -3
BITMAP
0000000100
0000005C10
0000005100
000002A900
00002B1C00
0000B41C00
0003C04A00
0009607700
000E10A500
017EBBE700
06D924F300
01F403D000
06E005C000
0D8005D000
110002A100
ENDCHAR
STARTCHAR Acircumflex
ENCODING 194
SWIDTH 552 0
DWIDTH 7 0
BBX 9 15 -2 -3
BITMAP
0000000300
000001AB40
0000011020
000002A900
00002B1C00
0000B41C00
0003C04A00
0009607700
000E10A500
017EBBE700
06D924F300
01F403D000
06E005C000
0D8005D000
110002A100
ENDCHAR
STARTCHAR Atilde
ENCODING 195
SWIDTH 552 0
DWIDTH 7 0
BBX 9 14 -2 -3
BITMAP
000005BAA0
0000000000
000002A900
00002B1C00
0000B41C00
0003C04A00
0009607700
000E10A500
017EBBE700
06D924F300
01F403D000
06E005C000
0D8005D000
110002A100
ENDCHAR
STARTCHAR Adieresis
ENCODING 196
SWIDTH 552 0
DWIDTH 7 0
BBX 9 14 -2 -3
BITMAP
000001B3B0
0000000000
000002A900
00002B1C00
0000B41C00
0003C04A00
0009607700
000E10A500
017EBBE700
06D924F300
01F403D000
06E005C000
0D8005D000
110002A100
ENDCHAR
STARTCHAR Aring
ENCODING 197
SWIDTH 552 0
DWIDTH 7 0
BBX 8 14 -2 -3
BITMAP
00000001
0000008A
000002BB
00002B1C
0000B41C
0003C04A
00096077
000E10A5
017EBBE7
06D924F3
01F403D0
06E005C0
0D8005D0
110002A1
ENDCHAR
STARTCHAR AE
ENCODING 198
SWIDTH 869 0
DWIDTH 10 0
BBX 13 12 -2 -3
BITMAP
000002A9189920
00002B1DD50680
0000B41F900A70
0003C04F603B10
0009607F900000
000E10A7EA3000
017EBBED430000
06D924F4000000
01F403F1001600
06E005F6019100
0D8005FEBC3000
110002A2200000
ENDCHAR
STARTCHAR Ccedilla
ENCODING 199
SWIDTH 548 0
DWIDTH 7 0
BBX 7 14 0 -5
BITMAP
0007AA10
00A80880
07C00990
1E402E60
6D000400
A9000000
D6000000
F5000000
E5001200
A9019100
2DBC3000
04A00000
02970000
03610000
ENDCHAR
STARTCHAR Egrave
ENCODING 200
SWIDTH 523 0
DWIDTH 6 0
BBX 8 15 -1 -3
BITMAP
00000100
00002C50
00000030
00019991
003D3086
00D700C4
01F305A0
00D60000
004EA200
05B33000
1E200000
4E000250
3F301A00
08EBB200
00120000
ENDCHAR
STARTCHAR Eacute
ENCODING 201
SWIDTH 523 0
DWIDTH 6 0
BBX 8 15 -1 -3
BITMAP
00000010
000006C0
00000500
00019991
003D3086
00D700C4
01F305A0
00D60000
004EA200
05B33000
1E200000
4E000250
3F301A00
08EBB200
00120000
ENDCHAR
STARTCHAR Ecircumflex
ENCODING 202
SWIDTH 523 0
DWIDTH 6 0
BBX 8 15 -1 -3
BITMAP
00000030
00002AB3
00001011
00019991
003D3086
00D700C4
01F305A0
00D60000
004EA200
05B33000
1E200000
4E000250
3F301A00
08EBB200
00120000
ENDCHAR
STARTCHAR Edieresis
ENCODING 203
SWIDTH 523 0
DWIDTH 6 0
BBX 8 14 -1 -3
BITMAP
00004967
00000000
00019991
003D3086
00D700C4
01F305A0
00D60000
004EA200
05B33000
1E200000
4E000250
3F301A00
08EBB200
00120000
ENDCHAR
STARTCHAR Igrave
ENCODING 204
SWIDTH 537 0
DWIDTH 6 0
BBX 8 15 -1 -3
BITMAP
00000100
00000B80
00000030
00001980
0001D4D0
0007B3C0
000976A0
00086A70
00047E30
00258F82
2CA69910
B700C300
B803A000
2C8A1000
00200000
ENDCHAR
STARTCHAR Iacute
ENCODING 205
SWIDTH 537 0
DWIDTH 6 0
BBX 8 14 -1 -3
BITMAP
000003C3
00000420
00001980
0001D4D0
0007B3C0
000976A0
00086A70
00047E30
00258F82
2CA69910
B700C300
B803A000
2C8A1000
00200000
ENDCHAR
STARTCHAR Icircumflex
ENCODING 206
SWIDTH 537 0
DWIDTH 6 0
BBX 8 15 -1 -3
BITMAP
00000021
0000079A
00000102
00001980
0001D4D0
0007B3C0
000976A0
00086A70
00047E30
00258F82
2CA69910
B700C300
B803A000
2C8A1000
00200000
ENDCHAR
STARTCHAR Idieresis
ENCODING 207
SWIDTH 537 0
DWIDTH 6 0
BBX 8 14 -1 -3
BITMAP
00001B3B
00000000
00001980
0001D4D0
0007B3C0
000976A0
00086A70
00047E30
00258F82
2CA69910
B700C300
B803A000
2C8A1000
00200000
ENDCHAR
STARTCHAR Eth
ENCODING 208
SWIDTH 632 0
DWIDTH 8 0
BBX 9 12 -1 -3
BITMAP
0029CA3000
009624D400
001D205C00
003E002F10
006B001F20
2BEEA03F10
11C4007C00
01E100D500
05B006B000
0A705D2000
0CBBA10000
0021000000
ENDCHAR
STARTCHAR Ntilde
ENCODING 209
SWIDTH 541 0
DWIDTH 7 0
BBX 9 13 -1 -3
BITMAP
0002BAA300
0037003C50
008D00C680
00CE02D740
01CC19E800
049A187000
086A1A4000
0B392C2000
0E094E0000
4D079B0000
6D04F70000
6E01E30000
0100000000
ENDCHAR
STARTCHAR Ograve
ENCODING 210
SWIDTH 567 0
DWIDTH 7 0
BBX 7 15 0 -3
BITMAP
00001000
0002C500
00000300
002CC500
01D72E00
08800E20
1E200D20
5B000D20
98001F10
C5003D00
D4007900
D400D300
A606A000
3C8B1000
02300000
ENDCHAR
STARTCHAR Oacute
ENCODING 211
SWIDTH 567 0
DWIDTH 7 0
BBX 7 15 0 -3
BITMAP
00000100
00019900
00024000
002CC500
01D72E00
08800E20
1E200D20
5B000D20
98001F10
C5003D00
D4007900
D400D300
A606A000
3C8B1000
02300000
ENDCHAR
STARTCHAR Ocircumflex
ENCODING 212
SWIDTH 567 0
DWIDTH 7 0
BBX 7 15 0 -3
BITMAP
00002100
00059C00
00010100
002CC500
01D72E00
08800E20
1E200D20
5B000D20
98001F10
C5003D00
D4007900
D400D300
A606A000
3C8B1000
02300000
ENDCHAR
STARTCHAR Otilde
ENCODING 213
SWIDTH 567 0
DWIDTH 7 0
BBX 7 14 0 -3
BITMAP
002BAA30
00000100
002CC500
01D72E00
08800E20
1E200D20
5B000D20
98001F10
C5003D00
D4007900
D400D300
A606A000
3C8B1000
02300000
ENDCHAR
STARTCHAR Odieresis
ENCODING 214
SWIDTH 567 0
DWIDTH 7 0
BBX 7 14 0 -3
BITMAP
00094B20
00000000
002CC500
01D72E00
08800E20
1E200D20
5B000D20
98001F10
C5003D00
D4007900
D400D300
A606A000
3C8B1000
02300000
ENDCHAR
STARTCHAR multiply
ENCODING 215
SWIDTH 281 0
DWIDTH 3 0
BBX 5 5 -1 2
BITMAP
011010
058780
00D900
04E200
294700
ENDCHAR
STARTCHAR Oslash
ENCODING 216
SWIDTH 597 0
DWIDTH 7 0
BBX 8 13 -1 -3
BITMAP
00000001
0001BCAC
000C81E4
006B06F4
00D41DC5
03D088B5
07A2D1D4
097961F1
0B9D05C0
0BF50B60
08D04C00
0DD7C200
26130000
ENDCHAR
STARTCHAR Ugrave
ENCODING 217
SWIDTH 574 0
DWIDTH 7 0
BBX 8 15 0 -3
BITMAP
00001000
0002C500
00000300
00730193
04F104E0
09A008A0
0D500C50
2F101F10
5C004C00
88008800
B500C500
D303F300
D40BE200
8DB6A400
02100000
ENDCHAR
STARTCHAR Uacute
ENCODING 218
SWIDTH 574 0
DWIDTH 7 0
BBX 8 14 0 -3
BITMAP
00003C30
00004200
00730193
04F104E0
09A008A0
0D500C50
2F101F10
5C004C00
88008800
B500C500
D303F300
D40BE200
8DB6A400
02100000
ENDCHAR
STARTCHAR Ucircumflex
ENCODING 219
SWIDTH 574 0
DWIDTH 7 0
BBX 8 15 0 -3
BITMAP
00000300
0002AB30
00010110
00730193
04F104E0
09A008A0
0D500C50
2F101F10
5C004C00
88008800
B500C500
D303F300
D40BE200
8DB6A400
02100000
ENDCHAR
STARTCHAR Udieresis
ENCODING 220
SWIDTH 574 0
DWIDTH 7 0
BBX 8 14 0 -3
BITMAP
00067850
00000000
00730193
04F104E0
09A008A0
0D500C50
2F101F10
5C004C00
88008800
B500C500
D303F300
D40BE200
8DB6A400
02100000
ENDCHAR
STARTCHAR Yacute
ENCODING 221
SWIDTH 532 0
DWIDTH 6 0
BBX 7 15 0 -3
BITMAP
00000100
00007A00
00014000
03A00590
09A00A80
0D500D30
2E102E00
5B007A00
8800D700
9708D300
4EB6C000
0103A000
531C3000
CFE60000
02000000
ENDCHAR
STARTCHAR Thorn
ENCODING 222
SWIDTH 569 0
DWIDTH 7 0
BBX 8 12 -1 -3
BITMAP
00091000
004D0000
007D9A50
06F602E3
05F100B6
03C000C5
079004D1
0A603D40
0E9AA200
2F200000
6D000000
11000000
ENDCHAR
STARTCHAR germandbls
ENCODING 223
SWIDTH 495 0
DWIDTH 6 0
BBX 8 14 -2 -6
BITMAP
00008B70
000692C0
000C2870
002C0C00
00670B20
01B205B0
07E122C4
04AA8AA1
08476510
0C148000
1C076000
491D1000
6CD50000
29400000
ENDCHAR
STARTCHAR agrave
ENCODING 224
SWIDTH 435 0
DWIDTH 5 0
BBX 8 9 -1 -1
BITMAP
00110000
004C3000
00013000
005C5000
04A4A000
0C249051
2E0A6350
1EB7B700
01002000
ENDCHAR
STARTCHAR aacute
ENCODING 225
SWIDTH 435 0
DWIDTH 5 0
BBX 8 9 -1 -1
BITMAP
00001000
0008A000
00140000
005C5000
04A4A000
0C249051
2E0A6350
1EB7B700
01002000
ENDCHAR
STARTCHAR acircumflex
ENCODING 226
SWIDTH 435 0
DWIDTH 5 0
BBX 8 9 -1 -1
BITMAP
00012000
0049C000
00101100
005C5000
04A4A000
0C249051
2E0A6350
1EB7B700
01002000
ENDCHAR
STARTCHAR atilde
ENCODING 227
SWIDTH 435 0
DWIDTH 5 0
BBX 8 8 -1 -1
BITMAP
00BAA600
00001000
005C5000
04A4A000
0C249051
2E0A6350
1EB7B700
01002000
ENDCHAR
STARTCHAR adieresis
ENCODING 228
SWIDTH 435 0
DWIDTH 5 0
BBX 8 8 -1 -1
BITMAP
00587600
00000000
005C5000
04A4A000
0C249051
2E0A6350
1EB7B700
01002000
ENDCHAR
STARTCHAR aring
ENCODING 229
SWIDTH 435 0
DWIDTH 5 0
BBX 8 8 -1 -1
BITMAP
001A6000
00051000
005C5000
04A4A000
0C249051
2E0A6350
1EB7B700
01002000
ENDCHAR
STARTCHAR ae
ENCODING 230
SWIDTH 594 0
DWIDTH 7 0
BBX 9 6 -1 -1
BITMAP
005C59C000
04A4E3C000
0C25DA2060
2E09C10730
1EC6D89300
0110230000
ENDCHAR
STARTCHAR ccedilla
ENCODING 231
SWIDTH 363 0
DWIDTH 4 0
BBX 7 8 -1 -3
BITMAP
009B3000
087B4000
0E010520
1D004600
0C886000
02C20000
01890000
02720000
ENDCHAR
STARTCHAR egrave
ENCODING 232
SWIDTH 372 0
DWIDTH 4 0
BBX 6 9 0 -1
BITMAP
010000
05C200
001200
06B400
579300
D96033
F30370
B99600
031000
ENDCHAR
STARTCHAR eacute
ENCODING 233
SWIDTH 372 0
DWIDTH 4 0
BBX 6 9 0 -1
BITMAP
000100
019800
023000
06B400
579300
D96033
F30370
B99600
031000
ENDCHAR
STARTCHAR ecircumflex
ENCODING 234
SWIDTH 372 0
DWIDTH 4 0
BBX 6 9 0 -1
BITMAP
002100
059B00
010200
06B400
579300
D96033
F30370
B99600
031000
ENDCHAR
STARTCHAR edieresis
ENCODING 235
SWIDTH 372 0
DWIDTH 4 0
BBX 6 8 0 -1
BITMAP
094B20
000000
06B400
579300
D96033
F30370
B99600
031000
ENDCHAR
STARTCHAR igrave
ENCODING 236
SWIDTH 274 0
DWIDTH 3 0
BBX 5 9 0 -1
BITMAP
100000
8B1000
021000
180000
6A0000
950610
B15600
9B6000
010000
ENDCHAR
STARTCHAR iacute
ENCODING 237
SWIDTH 274 0
DWIDTH 3 0
BBX 5 9 0 -1
BITMAP
000100
02B500
032000
180000
6A0000
950610
B15600
9B6000
010000
ENDCHAR
STARTCHAR icircumflex
ENCODING 238
SWIDTH 274 0
DWIDTH 3 0
BBX 5 9 0 -1
BITMAP
012000
49C100
101100
180000
6A0000
950610
B15600
9B6000
010000
ENDCHAR
STARTCHAR idieresis
ENCODING 239
SWIDTH 274 0
DWIDTH 3 0
BBX 5 8 0 -1
BITMAP
76A400
000000
180000
6A0000
950610
B15600
9B6000
010000
ENDCHAR
STARTCHAR eth
ENCODING 240
SWIDTH 393 0
DWIDTH 5 0
BBX 7 9 -1 -1
BITMAP
00052000
0017CA00
0066B000
0199B000
0884B160
0DB7D810
1B3C5000
0B8A0000
01300000
ENDCHAR
STARTCHAR ntilde
ENCODING 241
SWIDTH 461 0
DWIDTH 6 0
BBX 8 8 -1 -1
BITMAP
00AAA700
00001000
01658000
05E6E200
0970E024
0C24B180
1D06C910
11004000
ENDCHAR
STARTCHAR ograve
ENCODING 242
SWIDTH 393 0
DWIDTH 5 0
BBX 7 9 -1 -1
BITMAP
00100000
005C2000
00012000
01991000
08847160
0DB7C810
1B3C5000
0B8A0000
01300000
ENDCHAR
STARTCHAR oacute
ENCODING 243
SWIDTH 393 0
DWIDTH 5 0
BBX 7 9 -1 -1
BITMAP
00001000
00198000
00230000
01991000
08847160
0DB7C810
1B3C5000
0B8A0000
01300000
ENDCHAR
STARTCHAR ocircumflex
ENCODING 244
SWIDTH 393 0
DWIDTH 5 0
BBX 7 9 -1 -1
BITMAP
00030000
019A6000
01102000
01991000
08847160
0DB7C810
1B3C5000
0B8A0000
01300000
ENDCHAR
STARTCHAR otilde
ENCODING 245
SWIDTH 393 0
DWIDTH 5 0
BBX 7 8 -1 -1
BITMAP
04BAA200
00000000
01991000
08847160
0DB7C810
1B3C5000
0B8A0000
01300000
ENDCHAR
STARTCHAR odieresis
ENCODING 246
SWIDTH 393 0
DWIDTH 5 0
BBX 7 8 -1 -1
BITMAP
00B3B100
00000000
01991000
08847160
0DB7C810
1B3C5000
0B8A0000
01300000
ENDCHAR
STARTCHAR divide
ENCODING 247
SWIDTH 350 0
DWIDTH 4 0
BBX 5 5 0 2
BITMAP
001000
01A000
9BCB10
332000
072000
ENDCHAR
STARTCHAR oslash
ENCODING 248
SWIDTH 406 0
DWIDTH 5 0
BBX 7 7 -1 -1
BITMAP
00001100
008AC100
06A2A070
0CB6D810
0C2B7000
0D8B1000
58300000
ENDCHAR
STARTCHAR ugrave
ENCODING 249
SWIDTH 468 0
DWIDTH 6 0
BBX 7 9 0 -1
BITMAP
01100000
04C30000
00130000
15042000
870E3000
C23E0150
E0591800
CA9C9100
02010000
ENDCHAR
STARTCHAR uacute
ENCODING 250
SWIDTH 468 0
DWIDTH 6 0
BBX 7 9 0 -1
BITMAP
00010000
006B0000
00500000
15042000
870E3000
C23E0150
E0591800
CA9C9100
02010000
ENDCHAR
STARTCHAR ucircumflex
ENCODING 251
SWIDTH 468 0
DWIDTH 6 0
BBX 7 9 0 -1
BITMAP
00120000
03AC1000
01011000
15042000
870E3000
C23E0150
E0591800
CA9C9100
02010000
ENDCHAR
STARTCHAR udieresis
ENCODING 252
SWIDTH 468 0
DWIDTH 6 0
BBX 7 8 0 -1
BITMAP
05876000
00000000
15042000
870E3000
C23E0150
E0591800
CA9C9100
02010000
ENDCHAR
STARTCHAR yacute
ENCODING 253
SWIDTH 406 0
DWIDTH 5 0
BBX 6 13 -1 -5
BITMAP
000010
0004C1
000410
054072
0970C3
0E22D0
2D0B90
1EAC60
023B20
000D00
004B00
008800
00A400
ENDCHAR
STARTCHAR thorn
ENCODING 254
SWIDTH 451 0
DWIDTH 5 0
BBX 9 14 -2 -5
BITMAP
0001200000
0007B00000
0009800000
000C300000
001D490000
004E6B3000
00880B2420
00B54B3700
00EFFB8000
04A4220000
0760000000
0B30000000
0E10000000
2D00000000
ENDCHAR
STARTCHAR ydieresis
ENCODING 255
SWIDTH 406 0
DWIDTH 5 0
BBX 6 12 -1 -5
BITMAP
0094B2
000000
054072
0970C3
0E22D0
2D0B90
1EAC60
023B20
000D00
004B00
008800
00A400
ENDCHAR
STARTCHAR dotlessi
ENCODING 305
SWIDTH 274 0
DWIDTH 3 0
BBX 5 6 0 -1
BITMAP
180000
6A0000
950610
B15600
9B6000
010000
ENDCHAR
STARTCHAR Lslash
ENCODING 321
SWIDTH 492 0
DWIDTH 6 0
BBX 9 12 -2 -3
BITMAP
0000007B30
000005CA50
00000C6C10
00001FD500
006BDD3000
0000791000
0019ED7000
0035E10000
0006800000
1BDF400100
1C96DBC500
0000044000
ENDCHAR
STARTCHAR lslash
ENCODING 322
SWIDTH 218 0
DWIDTH 3 0
BBX 5 10 -1 -1
BITMAP
001200
008A00
00A600
00E200
49FC30
69A000
096000
0D2000
1D0000
020000
ENDCHAR
STARTCHAR OE
ENCODING 338
SWIDTH 918 0
DWIDTH 11 0
BBX 12 12 0 -3
BITMAP
002CC5039970
01D72E6C20C2
08800EF401E1
1E200DF00870
5B000DF20000
98001F8D9000
C5003FA23000
D4007D000000
D400DA000610
A606EE103800
3C8B2BEBA100
023000220000
ENDCHAR
STARTCHAR oe
ENCODING 339
SWIDTH 583 0
DWIDTH 7 0
BBX 9 6 -1 -1
BITMAP
019929C100
0884E4C000
0DC8DA3060
1B2CB10740
0B8BD89300
0120130000
ENDCHAR
STARTCHAR Scaron
ENCODING 352
SWIDTH 474 0
DWIDTH 6 0
BBX 8 15 -1 -3
BITMAP
00001102
00001CA3
00000210
0007BA50
009902D0
01F104D0
01F20650
00AB0000
001D9000
0003F200
0000B400
4B00B200
7C01C000
2E9B3000
01410000
ENDCHAR
STARTCHAR scaron
ENCODING 353
SWIDTH 351 0
DWIDTH 4 0
BBX 5 9 0 -1
BITMAP
020110
07A800
015000
0C9000
1D7000
72D000
32B400
9A9100
151000
ENDCHAR
STARTCHAR Ydieresis
ENCODING 376
SWIDTH 532 0
DWIDTH 6 0
BBX 7 14 0 -3
BITMAP
00094B20
00000000
03A00590
09A00A80
0D500D30
2E102E00
5B007A00
8800D700
9708D300
4EB6C000
0103A000
531C3000
CFE60000
02000000
ENDCHAR
STARTCHAR Zcaron
ENCODING 381
SWIDTH 455 0
DWIDTH 5 0
BBX 8 15 -1 -3
BITMAP
00002011
00007A80
00000200
007ABA80
009646D0
00000A80
00005D10
0002E300
001D5000
00B80000
07B00000
2D100000
A6454100
DDCDE300
10000000
ENDCHAR
STARTCHAR zcaron
ENCODING 382
SWIDTH 349 0
DWIDTH 4 0
BBX 7 14 -2 -6
BITMAP
00020110
0006B910
00003000
007BB400
0062B200
00049010
003E7270
0086C700
005AC000
07858000
3A0C2000
855A0000
6CC10000
03100000
ENDCHAR
STARTCHAR circumflex
ENCODING 710
SWIDTH 567 0
DWIDTH 7 0
BBX 4 3 2 6
BITMAP
0030
19B5
1102
ENDCHAR
STARTCHAR caron
ENCODING 711
SWIDTH 567 0
DWIDTH 7 0
BBX 4 3 2 6
BITMAP
1101
2CA2
0210
ENDCHAR
STARTCHAR breve
ENCODING 728
SWIDTH 567 0
DWIDTH 7 0
BBX 4 2 2 6
BITMAP
6867
1760
ENDCHAR
STARTCHAR dotaccent
ENCODING 729
SWIDTH 567 0
DWIDTH 7 0
BBX 2 1 3 7
BITMAP
58
ENDCHAR
STARTCHAR ring
ENCODING 730
SWIDTH 567 0
DWIDTH 7 0
BBX 2 2 3 6
BITMAP
7A
33
ENDCHAR
STARTCHAR ogonek
ENCODING 731
SWIDTH 567 0
DWIDTH 7 0
BBX 4 3 2 -2
BITMAP
0500
4B63
0520
ENDCHAR
STARTCHAR tilde
ENCODING 732
SWIDTH 567 0
DWIDTH 7 0
BBX 4 1 2 7
BITMAP
7AA9
ENDCHAR
STARTCHAR hungarumlaut
ENCODING 733
SWIDTH 567 0
DWIDTH 7 0
BBX 5 3 2 6
BITMAP
010100
4C6C10
415100
ENDCHAR
STARTCHAR endash
ENCODING 8211
SWIDTH 353 0
DWIDTH 4 0
BBX 5 2 -1 3
BITMAP
013320
1BA990
ENDCHAR
STARTCHAR emdash
ENCODING 8212
SWIDTH 508 0
DWIDTH 6 0
BBX 7 2 -1 3
BITMAP
02333310
1BAAABA0
ENDCHAR
STARTCHAR quoteleft
ENCODING 8216
SWIDTH 155 0
DWIDTH 2 0
BBX 2 4 0 5
BITMAP
01
17
6C
24
ENDCHAR
STARTCHAR quoteright
ENCODING 8217
SWIDTH 154 0
DWIDTH 2 0
BBX 3 4 0 5
BITMAP
0100
2F20
0B00
1200
ENDCHAR
STARTCHAR quotesinglbase
ENCODING 8218
SWIDTH 188 0
DWIDTH 2 0
BBX 2 4 -1 -2
BITMAP
02
5E
19
21
ENDCHAR
STARTCHAR quotedblleft
ENCODING 8220
SWIDTH 289 0
DWIDTH 3 0
BBX 4 4 0 5
BITMAP
0101
1753
6CC6
2452
ENDCHAR
STARTCHAR quotedblright
ENCODING 8221
SWIDTH 288 0
DWIDTH 3 0
BBX 4 4 0 5
BITMAP
0101
2FAB
0A47
1230
ENDCHAR
STARTCHAR quotedblbase
ENCODING 8222
SWIDTH 323 0
DWIDTH 4 0
BBX 4 4 -1 -2
BITMAP
0211
5EB8
1964
2130
ENDCHAR
STARTCHAR bullet
ENCODING 8226
SWIDTH 180 0
DWIDTH 2 0
BBX 3 3 -1 2
BITMAP
0670
1FC0
1D60
ENDCHAR
STARTCHAR ellipsis
ENCODING 8230
SWIDTH 614 0
DWIDTH 7 0
BBX 7 2 -1 -1
BITMAP
3C2A75C0
13030220
ENDCHAR
STARTCHAR perthousand
ENCODING 8240
SWIDTH 851 0
DWIDTH 10 0
BBX 10 10 0 -1
BITMAP
0591028000
3A480B2000
7457850000
77B5900000
163B100000
0095AB17B5
0497567A0A
1C1A198648
9608A93BB2
2000200100
ENDCHAR
STARTCHAR guilsinglleft
ENCODING 8249
SWIDTH 202 0
DWIDTH 2 0
BBX 4 6 -1 -1
BITMAP
0051
0570
4B00
2C00
0740
0010
ENDCHAR
STARTCHAR guilsinglright
ENCODING 8250
SWIDTH 202 0
DWIDTH 2 0
BBX 3 6 -1 -1
BITMAP
0600
0930
03B0
0950
6600
1000
ENDCHAR
STARTCHAR fraction
ENCODING 8260
SWIDTH 600 0
DWIDTH 7 0
BBX 8 10 0 -1
BITMAP
00000091
00000860
00003A00
0001B100
00094000
00490000
01C10000
09500000
5B000000
20000000
ENDCHAR
STARTCHAR Euro
ENCODING 8364
SWIDTH 334 0
DWIDTH 4 0
BBX 6 8 -1 0
BITMAP
000793
008614
03D100
1CB830
4E9800
0A1020
047830
001100
ENDCHAR
STARTCHAR minus
ENCODING 8722
SWIDTH 353 0
DWIDTH 4 0
BBX 5 2 -1 3
BITMAP
013320
1BA990
ENDCHAR
STARTCHAR fi
ENCODING 64257
SWIDTH 549 0
DWIDTH 7 0
BBX 10 15 -2 -6
BITMAP
0001500000
0005E00800
0005B01700
0008700000
000B206200
001C46E100
009B45A025
00E4066290
00CC24C910
0393A01000
0760D00000
0B22B00000
0D0A500000
2EBA000000
0860000000
ENDCHAR
STARTCHAR fl
ENCODING 64258
SWIDTH 516 0
DWIDTH 6 0
BBX 9 15 -2 -6
BITMAP
0001500210
0005E00F30
0005B02E00
0008705B00
000B209700
001C46D300
009B52E000
00E405A000
00CC287000
0393A11000
0760D00000
0B22B00000
0D0A500000
2EBA000000
0860000000
ENDCHAR
STARTCHAR .notdef
ENCODING -1
SWIDTH 280 0
DWIDTH 3 0
BBX 1 1 0 0
BITMAP
00
ENDCHAR
ENDFONT
